
<svg
  version="1.0"
  xmlns="http://www.w3.org/2000/svg"
  xmlns:xlink="http://www.w3.org/1999/xlink"
  width="2400"
  height="1800"
>
  
  <rect
    x="0"
    y="0"
    width="100%"
    height="100%"
    fill="#F95738"
    fill-opacity="1"
  ></rect>
  <svg
    version="1.0"
    xmlns="http://www.w3.org/2000/svg"
    xmlns:xlink="http://www.w3.org/1999/xlink"
    x="0"
    y="0"
    width="2400"
    height="1800"
    viewBox="0 0 340.000000 250.000000"
    preserveAspectRatio="xMidYMid meet"
    color-interpolation-filters="sRGB"
  >
    <defs><linearGradient id="92" x1="0%" y1="0%" x2="100%" y2="0%"><stop offset="0%" stop-color="#fa71cd"/> <stop offset="100%" stop-color="#9b59b6"/></linearGradient><linearGradient id="93" x1="0%" y1="0%" x2="100%" y2="0%"><stop offset="0%" stop-color="#f9d423"/> <stop offset="100%" stop-color="#f83600"/></linearGradient><linearGradient id="94" x1="0%" y1="0%" x2="100%" y2="0%"><stop offset="0%" stop-color="#0064d2"/> <stop offset="100%" stop-color="#1cb0f6"/></linearGradient><linearGradient id="95" x1="0%" y1="0%" x2="100%" y2="0%"><stop offset="0%" stop-color="#f00978"/> <stop offset="100%" stop-color="#3f51b1"/></linearGradient><linearGradient id="96" x1="0%" y1="0%" x2="100%" y2="0%"><stop offset="0%" stop-color="#7873f5"/> <stop offset="100%" stop-color="#ec77ab"/></linearGradient><linearGradient id="97" x1="0%" y1="0%" x2="100%" y2="0%"><stop offset="0%" stop-color="#f9d423"/> <stop offset="100%" stop-color="#e14fad"/></linearGradient><linearGradient id="98" x1="0%" y1="0%" x2="100%" y2="0%"><stop offset="0%" stop-color="#009efd"/> <stop offset="100%" stop-color="#2af598"/></linearGradient><linearGradient id="99" x1="0%" y1="0%" x2="100%" y2="0%"><stop offset="0%" stop-color="#ffcc00"/> <stop offset="100%" stop-color="#00b140"/></linearGradient><linearGradient id="100" x1="0%" y1="0%" x2="100%" y2="0%"><stop offset="0%" stop-color="#d51007"/> <stop offset="100%" stop-color="#ff8177"/></linearGradient><linearGradient id="102" x1="0%" y1="0%" x2="100%" y2="0%"><stop offset="0%" stop-color="#a2b6df"/> <stop offset="100%" stop-color="#0c3483"/></linearGradient><linearGradient id="103" x1="0%" y1="0%" x2="100%" y2="0%"><stop offset="0%" stop-color="#7ac5d8"/> <stop offset="100%" stop-color="#eea2a2"/></linearGradient><linearGradient id="104" x1="0%" y1="0%" x2="100%" y2="0%"><stop offset="0%" stop-color="#00ecbc"/> <stop offset="100%" stop-color="#007adf"/></linearGradient><linearGradient id="105" x1="0%" y1="0%" x2="100%" y2="0%"><stop offset="0%" stop-color="#b88746"/> <stop offset="100%" stop-color="#fdf5a6"/></linearGradient></defs> <g fill="#FFFFFF" class="pmspacesvg" transform="translate(48.04499816894531,98.85701560974121)"> <g> <g fill-opacity="1" mask="url(#40b49d14-b8be-403d-9588-e87adf033804)"><g><rect stroke-width="2" class="i-icon-bg" x="0" y="0" width="243.91000366210938" height="52.28596878051758" rx="10" ry="10"/> </g> <g transform="translate(10,10)"><g fill-rule="" class="tp-name" fill="#F95738" fill-opacity="1"><g transform="scale(1)"><g><path d="M24.91-28.785L24.91-30.7646Q24.91-31.4009 24.49-31.825100000000003L24.49-31.825100000000003Q24.04-32.2796 23.44-32.2796L23.44-32.2796 4.27-32.2796Q3.66-32.2796 3.22-31.825100000000003L3.22-31.825100000000003Q2.8-31.4009 2.8-30.7646L2.8-30.7646 2.8-1.4847Q2.8-0.8686 3.22-0.4444L3.22-0.4444Q3.66 0 4.27 0L4.27 0 23.44 0Q24.04 0 24.49-0.4444L24.49-0.4444Q24.91-0.8686 24.91-1.4847L24.91-1.4847 24.91-3.4643Q24.91-4.1006 24.49-4.524800000000001L24.49-4.524800000000001Q24.04-4.979299999999999 23.44-4.979299999999999L23.44-4.979299999999999 9.2-4.979299999999999Q8.59-4.979299999999999 8.15-5.403499999999999L8.15-5.403499999999999Q7.73-5.8479 7.73-6.464L7.73-6.464 7.73-25.8156Q7.73-26.431700000000003 8.15-26.8559L8.15-26.8559Q8.59-27.3003 9.2-27.3003L9.2-27.3003 23.44-27.3003Q24.04-27.3003 24.49-27.7245L24.49-27.7245Q24.91-28.179 24.91-28.785L24.91-28.785ZM48.06-30.7646L48.06-20.1091Q48.06-19.493000000000002 47.62-19.0486L47.62-19.0486Q47.2-18.6244 46.59-18.6244L46.59-18.6244 37.26-18.6244Q36.65-18.6244 36.21-19.0486L36.21-19.0486Q35.79-19.493000000000002 35.79-20.1091L35.79-20.1091 35.79-30.7646Q35.79-31.4009 35.34-31.825100000000003L35.34-31.825100000000003Q34.92-32.2796 34.29-32.2796L34.29-32.2796 32.33-32.2796Q31.72-32.2796 31.28-31.825100000000003L31.28-31.825100000000003Q30.86-31.4009 30.86-30.7646L30.86-30.7646 30.86-1.4847Q30.86-0.8686 31.28-0.4444L31.28-0.4444Q31.72 0 32.33 0L32.33 0 34.29 0Q34.92 0 35.34-0.4444L35.34-0.4444Q35.79-0.8686 35.79-1.4847L35.79-1.4847 35.79-12.1705Q35.79-12.7765 36.21-13.200700000000001L36.21-13.200700000000001Q36.65-13.655199999999999 37.26-13.655199999999999L37.26-13.655199999999999 46.59-13.655199999999999Q47.2-13.655199999999999 47.62-13.200700000000001L47.62-13.200700000000001Q48.06-12.7765 48.06-12.1705L48.06-12.1705 48.06-1.4847Q48.06-0.8686 48.48-0.4444L48.48-0.4444Q48.93 0 49.53 0L49.53 0 51.49 0Q52.1 0 52.55-0.4444L52.55-0.4444Q52.97-0.8686 52.97-1.4847L52.97-1.4847 52.97-30.7646Q52.97-31.4009 52.55-31.825100000000003L52.55-31.825100000000003Q52.1-32.2796 51.49-32.2796L51.49-32.2796 49.53-32.2796Q48.93-32.2796 48.48-31.825100000000003L48.48-31.825100000000003Q48.06-31.4009 48.06-30.7646L48.06-30.7646ZM81.28-4.979299999999999L62.12-4.979299999999999Q61.51-4.979299999999999 61.09-4.524800000000001L61.09-4.524800000000001Q60.65-4.1006 60.65-3.4643L60.65-3.4643 60.65-1.4847Q60.65-0.8686 61.09-0.4444L61.09-0.4444Q61.51 0 62.12 0L62.12 0 81.28 0Q81.89 0 82.33-0.4444L82.33-0.4444Q82.75-0.8686 82.75-1.4847L82.75-1.4847 82.75-3.4643Q82.75-4.1006 82.33-4.524800000000001L82.33-4.524800000000001Q81.89-4.979299999999999 81.28-4.979299999999999L81.28-4.979299999999999ZM81.28-18.6244L62.12-18.6244Q61.51-18.6244 61.09-18.18L61.09-18.18Q60.65-17.755799999999997 60.65-17.1195L60.65-17.1195 60.65-15.1399Q60.65-14.523800000000001 61.09-14.0794L61.09-14.0794Q61.51-13.655199999999999 62.12-13.655199999999999L62.12-13.655199999999999 81.28-13.655199999999999Q81.89-13.655199999999999 82.33-14.0794L82.33-14.0794Q82.75-14.523800000000001 82.75-15.1399L82.75-15.1399 82.75-17.1195Q82.75-17.755799999999997 82.33-18.18L82.33-18.18Q81.89-18.6244 81.28-18.6244L81.28-18.6244ZM81.28-32.2796L62.12-32.2796Q61.51-32.2796 61.09-31.825100000000003L61.09-31.825100000000003Q60.65-31.4009 60.65-30.7646L60.65-30.7646 60.65-28.785Q60.65-28.179 61.09-27.7245L61.09-27.7245Q61.51-27.3003 62.12-27.3003L62.12-27.3003 81.28-27.3003Q81.89-27.3003 82.33-27.7245L82.33-27.7245Q82.75-28.179 82.75-28.785L82.75-28.785 82.75-30.7646Q82.75-31.4009 82.33-31.825100000000003L82.33-31.825100000000003Q81.89-32.2796 81.28-32.2796L81.28-32.2796ZM94.05-31.0474L88.24-2.1715Q88.12-1.5554000000000001 88.49-1.0403L88.49-1.0403Q88.84-0.5151 89.47-0.404L89.47-0.404 91.53-0.0202Q92.16 0.0909 92.7-0.2626L92.7-0.2626Q93.23-0.6161 93.37-1.2221L93.37-1.2221 98.13-24.9672Q98.25-25.583299999999998 98.9-25.583299999999998L98.9-25.583299999999998Q99.56-25.583299999999998 99.68-24.9672L99.68-24.9672 104.44-1.2221Q104.55-0.6161 105.09-0.2626L105.09-0.2626Q105.63 0.0909 106.28-0.0202L106.28-0.0202 107.87-0.4949Q108.52-0.6161 108.87-1.1312000000000002L108.87-1.1312000000000002Q109.25-1.6261 109.11-2.2422000000000004L109.11-2.2422000000000004 103.76-31.0474Q103.53-32.2493 102.22-32.2493L102.22-32.2493 95.59-32.2493Q94.28-32.2493 94.05-31.0474L94.05-31.0474ZM131.03-18.6244L121.69-18.6244Q121.08-18.6244 120.64-19.0486L120.64-19.0486Q120.22-19.493000000000002 120.22-20.1091L120.22-20.1091 120.22-25.8156Q120.22-26.431700000000003 120.64-26.8559L120.64-26.8559Q121.08-27.3003 121.69-27.3003L121.69-27.3003 131.03-27.3003Q131.63-27.3003 132.05-26.8559L132.05-26.8559Q132.5-26.431700000000003 132.5-25.8156L132.5-25.8156 132.5-20.1091Q132.5-19.493000000000002 132.05-19.0486L132.05-19.0486Q131.63-18.6244 131.03-18.6244L131.03-18.6244ZM135.93-32.2796L116.76-32.2796Q116.16-32.2796 115.74-31.825100000000003L115.74-31.825100000000003Q115.29-31.4009 115.29-30.7646L115.29-30.7646 115.29-1.4847Q115.29-0.8686 115.74-0.4444L115.74-0.4444Q116.16 0 116.76 0L116.76 0 118.72 0Q119.35 0 119.77-0.4444L119.77-0.4444Q120.22-0.8686 120.22-1.4847L120.22-1.4847 120.22-12.1705Q120.22-12.7765 120.64-13.200700000000001L120.64-13.200700000000001Q121.08-13.655199999999999 121.69-13.655199999999999L121.69-13.655199999999999 135.93-13.655199999999999Q136.53-13.655199999999999 136.98-14.0794L136.98-14.0794Q137.4-14.523800000000001 137.4-15.1399L137.4-15.1399 137.4-30.7646Q137.4-31.4009 136.98-31.825100000000003L136.98-31.825100000000003Q136.53-32.2796 135.93-32.2796L135.93-32.2796ZM166.65-28.785L166.65-30.7646Q166.65-31.4009 166.23-31.825100000000003L166.23-31.825100000000003Q165.78-32.2796 165.18-32.2796L165.18-32.2796 146.01-32.2796Q145.4-32.2796 144.96-31.825100000000003L144.96-31.825100000000003Q144.54-31.4009 144.54-30.7646L144.54-30.7646 144.54-15.1399Q144.54-14.523800000000001 144.96-14.0794L144.96-14.0794Q145.4-13.655199999999999 146.01-13.655199999999999L146.01-13.655199999999999 160.27-13.655199999999999Q160.88-13.655199999999999 161.3-13.200700000000001L161.3-13.200700000000001Q161.74-12.7765 161.74-12.1705L161.74-12.1705 161.74-6.464Q161.74-5.8479 161.3-5.403499999999999L161.3-5.403499999999999Q160.88-4.979299999999999 160.27-4.979299999999999L160.27-4.979299999999999 146.01-4.979299999999999Q145.4-4.979299999999999 144.96-4.524800000000001L144.96-4.524800000000001Q144.54-4.1006 144.54-3.4643L144.54-3.4643 144.54-1.4847Q144.54-0.8686 144.96-0.4444L144.96-0.4444Q145.4 0 146.01 0L146.01 0 165.18 0Q165.78 0 166.23-0.4444L166.23-0.4444Q166.65-0.8686 166.65-1.4847L166.65-1.4847 166.65-17.1195Q166.65-17.755799999999997 166.23-18.18L166.23-18.18Q165.78-18.6244 165.18-18.6244L165.18-18.6244 150.94-18.6244Q150.33-18.6244 149.89-19.0486L149.89-19.0486Q149.47-19.493000000000002 149.47-20.1091L149.47-20.1091 149.47-25.8156Q149.47-26.431700000000003 149.89-26.8559L149.89-26.8559Q150.33-27.3003 150.94-27.3003L150.94-27.3003 165.18-27.3003Q165.78-27.3003 166.23-27.7245L166.23-27.7245Q166.65-28.179 166.65-28.785L166.65-28.785ZM189.5-16.9074L197.58-29.986900000000002Q198.02-30.724200000000003 197.6-31.501900000000003L197.6-31.501900000000003Q197.18-32.2796 196.32-32.2796L196.32-32.2796 194-32.2796Q193.19-32.2796 192.74-31.5726L192.74-31.5726 185.2-19.3112Q184.76-18.573900000000002 183.92-18.573900000000002L183.92-18.573900000000002 180.63-18.573900000000002Q180.02-18.573900000000002 179.58-18.998099999999997L179.58-18.998099999999997Q179.16-19.4526 179.16-20.0687L179.16-20.0687 179.16-30.744400000000002Q179.16-31.360500000000002 178.72-31.7847L178.72-31.7847Q178.29-32.2291 177.66-32.2291L177.66-32.2291 175.7-32.2291Q175.1-32.2291 174.68-31.7847L174.68-31.7847Q174.23-31.360500000000002 174.23-30.744400000000002L174.23-30.744400000000002 174.23-1.4342Q174.23-0.2626 175.38 0L175.38 0 178.01 0Q179.16-0.2626 179.16-1.4342L179.16-1.4342 179.16-12.120000000000001Q179.16-12.7361 179.58-13.1805L179.58-13.1805Q180.02-13.604700000000001 180.63-13.604700000000001L180.63-13.604700000000001 184.01-13.604700000000001Q184.85-13.604700000000001 185.3-12.8775L185.3-12.8775 192.72-0.707Q193.16 0 193.98 0L193.98 0 196.29 0Q197.16 0 197.58-0.7575000000000001L197.58-0.7575000000000001Q198-1.5352000000000001 197.55-2.2624000000000004L197.55-2.2624000000000004 189.5-15.422699999999999Q189.08-16.1701 189.5-16.9074L189.5-16.9074ZM220.34-18.6244L211-18.6244Q210.39-18.6244 209.95-19.0486L209.95-19.0486Q209.53-19.493000000000002 209.53-20.1091L209.53-20.1091 209.53-25.8156Q209.53-26.431700000000003 209.95-26.8559L209.95-26.8559Q210.39-27.3003 211-27.3003L211-27.3003 220.34-27.3003Q220.94-27.3003 221.36-26.8559L221.36-26.8559Q221.81-26.431700000000003 221.81-25.8156L221.81-25.8156 221.81-20.1091Q221.81-19.493000000000002 221.36-19.0486L221.36-19.0486Q220.94-18.6244 220.34-18.6244L220.34-18.6244ZM220.34-4.979299999999999L211-4.979299999999999Q210.39-4.979299999999999 209.95-5.403499999999999L209.95-5.403499999999999Q209.53-5.8479 209.53-6.464L209.53-6.464 209.53-12.1705Q209.53-12.7765 209.95-13.200700000000001L209.95-13.200700000000001Q210.39-13.655199999999999 211-13.655199999999999L211-13.655199999999999 220.34-13.655199999999999Q220.94-13.655199999999999 221.36-13.200700000000001L221.36-13.200700000000001Q221.81-12.7765 221.81-12.1705L221.81-12.1705 221.81-6.464Q221.81-5.8479 221.36-5.403499999999999L221.36-5.403499999999999Q220.94-4.979299999999999 220.34-4.979299999999999L220.34-4.979299999999999ZM225.24-32.2796L206.07-32.2796Q205.47-32.2796 205.05-31.825100000000003L205.05-31.825100000000003Q204.6-31.4009 204.6-30.7646L204.6-30.7646 204.6-1.4847Q204.6-0.8686 205.05-0.4444L205.05-0.4444Q205.47 0 206.07 0L206.07 0 225.24 0Q225.84 0 226.29-0.4444L226.29-0.4444Q226.71-0.8686 226.71-1.4847L226.71-1.4847 226.71-30.7646Q226.71-31.4009 226.29-31.825100000000003L226.29-31.825100000000003Q225.84-32.2796 225.24-32.2796L225.24-32.2796Z" transform="translate(-2.799999952316284, 32.279598236083984)"/></g> </g></g> </g></g> </g></g><mask id="40b49d14-b8be-403d-9588-e87adf033804"><g fill="white"><rect stroke-width="2" class="i-icon-bg" x="0" y="0" width="243.91000366210938" height="52.28596878051758" rx="10" ry="10"/> </g> <g transform="translate(10,10)" fill="black"><g fill-rule="" class="tp-name" fill-opacity="1"><g transform="scale(1)"><g><path d="M24.91-28.785L24.91-30.7646Q24.91-31.4009 24.49-31.825100000000003L24.49-31.825100000000003Q24.04-32.2796 23.44-32.2796L23.44-32.2796 4.27-32.2796Q3.66-32.2796 3.22-31.825100000000003L3.22-31.825100000000003Q2.8-31.4009 2.8-30.7646L2.8-30.7646 2.8-1.4847Q2.8-0.8686 3.22-0.4444L3.22-0.4444Q3.66 0 4.27 0L4.27 0 23.44 0Q24.04 0 24.49-0.4444L24.49-0.4444Q24.91-0.8686 24.91-1.4847L24.91-1.4847 24.91-3.4643Q24.91-4.1006 24.49-4.524800000000001L24.49-4.524800000000001Q24.04-4.979299999999999 23.44-4.979299999999999L23.44-4.979299999999999 9.2-4.979299999999999Q8.59-4.979299999999999 8.15-5.403499999999999L8.15-5.403499999999999Q7.73-5.8479 7.73-6.464L7.73-6.464 7.73-25.8156Q7.73-26.431700000000003 8.15-26.8559L8.15-26.8559Q8.59-27.3003 9.2-27.3003L9.2-27.3003 23.44-27.3003Q24.04-27.3003 24.49-27.7245L24.49-27.7245Q24.91-28.179 24.91-28.785L24.91-28.785ZM48.06-30.7646L48.06-20.1091Q48.06-19.493000000000002 47.62-19.0486L47.62-19.0486Q47.2-18.6244 46.59-18.6244L46.59-18.6244 37.26-18.6244Q36.65-18.6244 36.21-19.0486L36.21-19.0486Q35.79-19.493000000000002 35.79-20.1091L35.79-20.1091 35.79-30.7646Q35.79-31.4009 35.34-31.825100000000003L35.34-31.825100000000003Q34.92-32.2796 34.29-32.2796L34.29-32.2796 32.33-32.2796Q31.72-32.2796 31.28-31.825100000000003L31.28-31.825100000000003Q30.86-31.4009 30.86-30.7646L30.86-30.7646 30.86-1.4847Q30.86-0.8686 31.28-0.4444L31.28-0.4444Q31.72 0 32.33 0L32.33 0 34.29 0Q34.92 0 35.34-0.4444L35.34-0.4444Q35.79-0.8686 35.79-1.4847L35.79-1.4847 35.79-12.1705Q35.79-12.7765 36.21-13.200700000000001L36.21-13.200700000000001Q36.65-13.655199999999999 37.26-13.655199999999999L37.26-13.655199999999999 46.59-13.655199999999999Q47.2-13.655199999999999 47.62-13.200700000000001L47.62-13.200700000000001Q48.06-12.7765 48.06-12.1705L48.06-12.1705 48.06-1.4847Q48.06-0.8686 48.48-0.4444L48.48-0.4444Q48.93 0 49.53 0L49.53 0 51.49 0Q52.1 0 52.55-0.4444L52.55-0.4444Q52.97-0.8686 52.97-1.4847L52.97-1.4847 52.97-30.7646Q52.97-31.4009 52.55-31.825100000000003L52.55-31.825100000000003Q52.1-32.2796 51.49-32.2796L51.49-32.2796 49.53-32.2796Q48.93-32.2796 48.48-31.825100000000003L48.48-31.825100000000003Q48.06-31.4009 48.06-30.7646L48.06-30.7646ZM81.28-4.979299999999999L62.12-4.979299999999999Q61.51-4.979299999999999 61.09-4.524800000000001L61.09-4.524800000000001Q60.65-4.1006 60.65-3.4643L60.65-3.4643 60.65-1.4847Q60.65-0.8686 61.09-0.4444L61.09-0.4444Q61.51 0 62.12 0L62.12 0 81.28 0Q81.89 0 82.33-0.4444L82.33-0.4444Q82.75-0.8686 82.75-1.4847L82.75-1.4847 82.75-3.4643Q82.75-4.1006 82.33-4.524800000000001L82.33-4.524800000000001Q81.89-4.979299999999999 81.28-4.979299999999999L81.28-4.979299999999999ZM81.28-18.6244L62.12-18.6244Q61.51-18.6244 61.09-18.18L61.09-18.18Q60.65-17.755799999999997 60.65-17.1195L60.65-17.1195 60.65-15.1399Q60.65-14.523800000000001 61.09-14.0794L61.09-14.0794Q61.51-13.655199999999999 62.12-13.655199999999999L62.12-13.655199999999999 81.28-13.655199999999999Q81.89-13.655199999999999 82.33-14.0794L82.33-14.0794Q82.75-14.523800000000001 82.75-15.1399L82.75-15.1399 82.75-17.1195Q82.75-17.755799999999997 82.33-18.18L82.33-18.18Q81.89-18.6244 81.28-18.6244L81.28-18.6244ZM81.28-32.2796L62.12-32.2796Q61.51-32.2796 61.09-31.825100000000003L61.09-31.825100000000003Q60.65-31.4009 60.65-30.7646L60.65-30.7646 60.65-28.785Q60.65-28.179 61.09-27.7245L61.09-27.7245Q61.51-27.3003 62.12-27.3003L62.12-27.3003 81.28-27.3003Q81.89-27.3003 82.33-27.7245L82.33-27.7245Q82.75-28.179 82.75-28.785L82.75-28.785 82.75-30.7646Q82.75-31.4009 82.33-31.825100000000003L82.33-31.825100000000003Q81.89-32.2796 81.28-32.2796L81.28-32.2796ZM94.05-31.0474L88.24-2.1715Q88.12-1.5554000000000001 88.49-1.0403L88.49-1.0403Q88.84-0.5151 89.47-0.404L89.47-0.404 91.53-0.0202Q92.16 0.0909 92.7-0.2626L92.7-0.2626Q93.23-0.6161 93.37-1.2221L93.37-1.2221 98.13-24.9672Q98.25-25.583299999999998 98.9-25.583299999999998L98.9-25.583299999999998Q99.56-25.583299999999998 99.68-24.9672L99.68-24.9672 104.44-1.2221Q104.55-0.6161 105.09-0.2626L105.09-0.2626Q105.63 0.0909 106.28-0.0202L106.28-0.0202 107.87-0.4949Q108.52-0.6161 108.87-1.1312000000000002L108.87-1.1312000000000002Q109.25-1.6261 109.11-2.2422000000000004L109.11-2.2422000000000004 103.76-31.0474Q103.53-32.2493 102.22-32.2493L102.22-32.2493 95.59-32.2493Q94.28-32.2493 94.05-31.0474L94.05-31.0474ZM131.03-18.6244L121.69-18.6244Q121.08-18.6244 120.64-19.0486L120.64-19.0486Q120.22-19.493000000000002 120.22-20.1091L120.22-20.1091 120.22-25.8156Q120.22-26.431700000000003 120.64-26.8559L120.64-26.8559Q121.08-27.3003 121.69-27.3003L121.69-27.3003 131.03-27.3003Q131.63-27.3003 132.05-26.8559L132.05-26.8559Q132.5-26.431700000000003 132.5-25.8156L132.5-25.8156 132.5-20.1091Q132.5-19.493000000000002 132.05-19.0486L132.05-19.0486Q131.63-18.6244 131.03-18.6244L131.03-18.6244ZM135.93-32.2796L116.76-32.2796Q116.16-32.2796 115.74-31.825100000000003L115.74-31.825100000000003Q115.29-31.4009 115.29-30.7646L115.29-30.7646 115.29-1.4847Q115.29-0.8686 115.74-0.4444L115.74-0.4444Q116.16 0 116.76 0L116.76 0 118.72 0Q119.35 0 119.77-0.4444L119.77-0.4444Q120.22-0.8686 120.22-1.4847L120.22-1.4847 120.22-12.1705Q120.22-12.7765 120.64-13.200700000000001L120.64-13.200700000000001Q121.08-13.655199999999999 121.69-13.655199999999999L121.69-13.655199999999999 135.93-13.655199999999999Q136.53-13.655199999999999 136.98-14.0794L136.98-14.0794Q137.4-14.523800000000001 137.4-15.1399L137.4-15.1399 137.4-30.7646Q137.4-31.4009 136.98-31.825100000000003L136.98-31.825100000000003Q136.53-32.2796 135.93-32.2796L135.93-32.2796ZM166.65-28.785L166.65-30.7646Q166.65-31.4009 166.23-31.825100000000003L166.23-31.825100000000003Q165.78-32.2796 165.18-32.2796L165.18-32.2796 146.01-32.2796Q145.4-32.2796 144.96-31.825100000000003L144.96-31.825100000000003Q144.54-31.4009 144.54-30.7646L144.54-30.7646 144.54-15.1399Q144.54-14.523800000000001 144.96-14.0794L144.96-14.0794Q145.4-13.655199999999999 146.01-13.655199999999999L146.01-13.655199999999999 160.27-13.655199999999999Q160.88-13.655199999999999 161.3-13.200700000000001L161.3-13.200700000000001Q161.74-12.7765 161.74-12.1705L161.74-12.1705 161.74-6.464Q161.74-5.8479 161.3-5.403499999999999L161.3-5.403499999999999Q160.88-4.979299999999999 160.27-4.979299999999999L160.27-4.979299999999999 146.01-4.979299999999999Q145.4-4.979299999999999 144.96-4.524800000000001L144.96-4.524800000000001Q144.54-4.1006 144.54-3.4643L144.54-3.4643 144.54-1.4847Q144.54-0.8686 144.96-0.4444L144.96-0.4444Q145.4 0 146.01 0L146.01 0 165.18 0Q165.78 0 166.23-0.4444L166.23-0.4444Q166.65-0.8686 166.65-1.4847L166.65-1.4847 166.65-17.1195Q166.65-17.755799999999997 166.23-18.18L166.23-18.18Q165.78-18.6244 165.18-18.6244L165.18-18.6244 150.94-18.6244Q150.33-18.6244 149.89-19.0486L149.89-19.0486Q149.47-19.493000000000002 149.47-20.1091L149.47-20.1091 149.47-25.8156Q149.47-26.431700000000003 149.89-26.8559L149.89-26.8559Q150.33-27.3003 150.94-27.3003L150.94-27.3003 165.18-27.3003Q165.78-27.3003 166.23-27.7245L166.23-27.7245Q166.65-28.179 166.65-28.785L166.65-28.785ZM189.5-16.9074L197.58-29.986900000000002Q198.02-30.724200000000003 197.6-31.501900000000003L197.6-31.501900000000003Q197.18-32.2796 196.32-32.2796L196.32-32.2796 194-32.2796Q193.19-32.2796 192.74-31.5726L192.74-31.5726 185.2-19.3112Q184.76-18.573900000000002 183.92-18.573900000000002L183.92-18.573900000000002 180.63-18.573900000000002Q180.02-18.573900000000002 179.58-18.998099999999997L179.58-18.998099999999997Q179.16-19.4526 179.16-20.0687L179.16-20.0687 179.16-30.744400000000002Q179.16-31.360500000000002 178.72-31.7847L178.72-31.7847Q178.29-32.2291 177.66-32.2291L177.66-32.2291 175.7-32.2291Q175.1-32.2291 174.68-31.7847L174.68-31.7847Q174.23-31.360500000000002 174.23-30.744400000000002L174.23-30.744400000000002 174.23-1.4342Q174.23-0.2626 175.38 0L175.38 0 178.01 0Q179.16-0.2626 179.16-1.4342L179.16-1.4342 179.16-12.120000000000001Q179.16-12.7361 179.58-13.1805L179.58-13.1805Q180.02-13.604700000000001 180.63-13.604700000000001L180.63-13.604700000000001 184.01-13.604700000000001Q184.85-13.604700000000001 185.3-12.8775L185.3-12.8775 192.72-0.707Q193.16 0 193.98 0L193.98 0 196.29 0Q197.16 0 197.58-0.7575000000000001L197.58-0.7575000000000001Q198-1.5352000000000001 197.55-2.2624000000000004L197.55-2.2624000000000004 189.5-15.422699999999999Q189.08-16.1701 189.5-16.9074L189.5-16.9074ZM220.34-18.6244L211-18.6244Q210.39-18.6244 209.95-19.0486L209.95-19.0486Q209.53-19.493000000000002 209.53-20.1091L209.53-20.1091 209.53-25.8156Q209.53-26.431700000000003 209.95-26.8559L209.95-26.8559Q210.39-27.3003 211-27.3003L211-27.3003 220.34-27.3003Q220.94-27.3003 221.36-26.8559L221.36-26.8559Q221.81-26.431700000000003 221.81-25.8156L221.81-25.8156 221.81-20.1091Q221.81-19.493000000000002 221.36-19.0486L221.36-19.0486Q220.94-18.6244 220.34-18.6244L220.34-18.6244ZM220.34-4.979299999999999L211-4.979299999999999Q210.39-4.979299999999999 209.95-5.403499999999999L209.95-5.403499999999999Q209.53-5.8479 209.53-6.464L209.53-6.464 209.53-12.1705Q209.53-12.7765 209.95-13.200700000000001L209.95-13.200700000000001Q210.39-13.655199999999999 211-13.655199999999999L211-13.655199999999999 220.34-13.655199999999999Q220.94-13.655199999999999 221.36-13.200700000000001L221.36-13.200700000000001Q221.81-12.7765 221.81-12.1705L221.81-12.1705 221.81-6.464Q221.81-5.8479 221.36-5.403499999999999L221.36-5.403499999999999Q220.94-4.979299999999999 220.34-4.979299999999999L220.34-4.979299999999999ZM225.24-32.2796L206.07-32.2796Q205.47-32.2796 205.05-31.825100000000003L205.05-31.825100000000003Q204.6-31.4009 204.6-30.7646L204.6-30.7646 204.6-1.4847Q204.6-0.8686 205.05-0.4444L205.05-0.4444Q205.47 0 206.07 0L206.07 0 225.24 0Q225.84 0 226.29-0.4444L226.29-0.4444Q226.71-0.8686 226.71-1.4847L226.71-1.4847 226.71-30.7646Q226.71-31.4009 226.29-31.825100000000003L226.29-31.825100000000003Q225.84-32.2796 225.24-32.2796L225.24-32.2796Z" transform="translate(-2.799999952316284, 32.279598236083984)"/></g> </g></g> </g></mask><defs v-gra="od"/>
  </svg>
</svg>


